<svg width="122" height="124" viewBox="0 0 122 124" fill="none" xmlns="http://www.w3.org/2000/svg">
<path d="M122 61.7223C122 95.8089 94.6876 123.445 61 123.445C27.3124 123.445 0 95.8149 0 61.7223C0 27.6298 27.3124 0 61 0C94.6876 0 122 27.6358 122 61.7223Z" fill="#FFFDFF"/>
<path d="M119.597 61.7223C119.597 94.4672 93.3617 121.013 61 121.013C28.6384 121.013 2.40332 94.4732 2.40332 61.7223C2.40332 28.9715 28.6384 2.43176 61 2.43176C93.3617 2.43176 119.597 28.9775 119.597 61.7223Z" fill="#E73460"/>
<path d="M116.779 61.7223C116.779 92.8919 91.8046 118.162 60.9997 118.162C30.1949 118.162 5.2207 92.8979 5.2207 61.7223C5.2207 30.5467 30.1949 5.28876 60.9997 5.28876C91.8046 5.28876 116.779 30.5587 116.779 61.7283" fill="#F7FAFA"/>
<path d="M112.198 61.7223C112.198 90.3344 89.2774 113.526 61.0001 113.526C32.7229 113.526 9.80273 90.3344 9.80273 61.7223C9.80273 33.1102 32.7288 9.92468 61.0001 9.92468C89.2714 9.92468 112.198 33.1162 112.198 61.7283" fill="#E73460"/>
<path d="M28.4786 35.9972H22.3105V87.1839H28.4786V35.9972Z" fill="white"/>
<path d="M64.2617 52.2169H57.916V87.1839H64.2617V52.2169Z" fill="white"/>
<path d="M28.4782 59.2606C28.4782 59.2606 27.7501 40.0941 44.7567 40.0941C58.5017 40.0941 57.9157 54.2713 57.9157 54.2713L64.2613 55.3435C64.2613 55.3435 64.581 34.8412 47.4027 34.8412C30.2244 34.8412 26.874 47.0539 26.874 56.5055" fill="white"/>
<path d="M99.5468 87.0521H93.2012V52.0851L99.5528 54.7146L99.5468 87.0521Z" fill="white"/>
<path d="M64.2612 59.4523C64.2612 59.4523 62.8642 39.9623 79.8649 39.9623C93.6099 39.9623 93.2015 54.1396 93.2015 54.1396L99.5471 55.2117C99.5471 55.2117 101.317 34.7095 82.8602 34.7095C66.0607 34.7095 62.7695 48.755 62.7695 55.3015" fill="white"/>
<path d="M80.7058 67.6041H41.4775V74.2345H80.7058V67.6041Z" fill="white"/>
<mask id="mask0_2071_410" style="mask-type:luminance" maskUnits="userSpaceOnUse" x="3" y="3" width="117" height="118">
<path d="M61.1536 120.354C93.1593 120.354 119.105 94.101 119.105 61.7163C119.105 29.3315 93.1593 3.07855 61.1536 3.07855C29.1479 3.07855 3.20215 29.3315 3.20215 61.7163C3.20215 94.101 29.1479 120.354 61.1536 120.354Z" fill="white"/>
</mask>
<g mask="url(#mask0_2071_410)">
</g>
</svg>
